<svg width="314" height="64" viewBox="0 0 314 64" fill="none" xmlns="http://www.w3.org/2000/svg">
    <path d="M32.0101 10.9933C20.4051 10.9933 10.9968 20.3986 10.9968 31.9998C10.9968 43.6011 20.4051 53.0064 32.0101 53.0064C43.615 53.0064 53.0233 43.6011 53.0233 31.9998C53.0233 20.3986 43.615 10.9933 32.0101 10.9933Z" fill="#C6FE1E"/>
    <mask id="mask0_433_167755" style="mask-type:luminance" maskUnits="userSpaceOnUse" x="17" y="20" width="32" height="27">
    <path d="M48.8206 20.4462H17.3008V46.7044H48.8206V20.4462Z" fill="white"/>
    </mask>
    <g mask="url(#mask0_433_167755)">
    <path d="M29.5025 26.5044H29.4885C28.62 26.2551 27.701 26.7537 27.4068 27.5771C27.0818 28.4622 27.5973 29.4761 28.5079 29.7562C30.7381 30.3892 31.6963 27.1934 29.5025 26.5044Z" fill="#0D0D0D"/>
    <path d="M48.5098 31.0222C45.6379 24.7342 36.4762 27.3362 35.63 25.6893C33.1505 21.7989 28.522 19.6142 23.518 20.7402C22.7475 20.4321 20.0943 20.348 18.3796 21.4264L19.4134 21.8829C19.4919 21.9165 19.4695 21.9081 19.5843 21.9501C20.0522 22.1266 19.971 22.0762 19.6348 22.261C18.8643 22.712 17.9033 23.2357 17.3037 24.0228C17.3289 24.0592 18.6233 24.3701 18.6233 24.3701C18.6458 24.3757 18.8867 24.4009 18.8335 24.5073C14.6 31.1902 21.7389 41.2762 25.2047 46.7043H35.2378C33.6884 43.9314 31.9177 40.1474 32.5229 37.579C32.6322 37.1141 32.7722 36.5231 33.3438 36.4447C34.7251 36.2234 36.5742 36.243 37.8911 36.0946C37.8911 36.0946 37.8976 36.0946 37.9107 36.0946C38.1909 36.0806 45.0496 35.2095 46.6914 39.4836C46.8315 39.8757 47.1537 39.6209 47.2826 39.3632C48.507 36.9292 49.2971 33.0976 48.5154 31.025L48.5098 31.0222ZM37.4372 28.9579C36.9553 29.8178 36.6275 30.9353 36.5434 31.9101C36.4986 32.529 36.563 33.1396 36.6247 33.7586C36.6583 34.1003 36.6611 34.5317 36.3865 34.7557C36.1484 34.9574 35.7533 34.977 35.3555 35.005C33.4026 34.9966 28.6396 35.005 26.8045 33.7558L26.7933 33.7474C24.1232 32.1201 22.6943 28.4454 24.2801 25.5913C24.7928 24.6222 25.737 23.992 26.8129 23.7539C28.197 23.4374 29.7211 23.6727 30.9567 24.3197C31.461 24.5746 32.0634 24.9107 32.5229 25.2972C33.4335 26.0926 34.2124 26.9189 35.4059 27.1738C35.9551 27.3306 36.5266 27.3082 37.0758 27.4202C38.104 27.6667 37.8462 28.2521 37.4344 28.9523L37.4372 28.9579Z" fill="#0D0D0D"/>
    </g>
    <path d="M64.0203 41.5368V17.693H72.2154C74.6193 17.693 76.7151 18.1719 78.5026 19.127C80.2901 20.0849 81.677 21.449 82.6716 23.2219C83.6634 24.9949 84.1593 27.1319 84.1593 29.6303C84.1593 32.1287 83.6634 34.2994 82.6716 36.0723C81.6798 37.8453 80.2845 39.2009 78.4858 40.1336C76.687 41.0663 74.5857 41.534 72.1818 41.534H64.0231L64.0203 41.5368ZM68.6096 38.6996L66.8949 37.1591H71.868C73.3389 37.1591 74.639 36.8902 75.7737 36.3524C76.9056 35.8147 77.7993 34.9996 78.4521 33.9017C79.105 32.8037 79.4328 31.3809 79.4328 29.6303C79.4328 27.8798 79.1106 26.5494 78.469 25.429C77.8274 24.3087 76.9392 23.4684 75.8073 22.9082C74.6754 22.348 73.3726 22.068 71.9016 22.068H66.6483L68.6096 20.6675V38.6996Z" fill="white"/>
    <path d="M95.0133 41.9569C93.2398 41.9569 91.6792 41.576 90.3372 40.8198C88.9951 40.0607 87.9501 39.0104 87.202 37.6688C86.4539 36.3272 86.0813 34.7699 86.0813 32.9941C86.0813 31.2184 86.4539 29.6639 87.202 28.3195C87.9501 26.9778 88.9923 25.9275 90.3372 25.1685C91.6792 24.4094 93.237 24.0313 95.0133 24.0313C96.7896 24.0313 98.3446 24.4122 99.6895 25.1685C101.032 25.9275 102.077 26.9778 102.825 28.3195C103.573 29.6611 103.945 31.2212 103.945 32.9941C103.945 34.7671 103.573 36.3272 102.825 37.6688C102.077 39.0104 101.032 40.0607 99.6895 40.8198C98.3474 41.5788 96.7868 41.9569 95.0133 41.9569ZM95.0133 37.5091C96.2741 37.5091 97.3024 37.0946 98.0953 36.2655C98.8882 35.4365 99.286 34.3469 99.286 32.9913C99.286 31.6357 98.8882 30.5406 98.0953 29.7003C97.3024 28.86 96.2741 28.4399 95.0133 28.4399C93.7525 28.4399 92.7299 28.8544 91.9482 29.6835C91.1665 30.5126 90.7743 31.6049 90.7743 32.9577C90.7743 34.3105 91.1637 35.4085 91.9482 36.2487C92.7299 37.089 93.7525 37.5091 95.0133 37.5091Z" fill="white"/>
    <path d="M113.74 41.9738C112.177 41.9738 110.798 41.5873 109.608 40.8198C108.417 40.0524 107.495 38.988 106.84 37.6324C106.187 36.2796 105.859 34.7251 105.859 32.9774C105.859 31.2296 106.192 29.6471 106.856 28.3027C107.523 26.9611 108.451 25.9164 109.641 25.1685C110.832 24.4207 112.196 24.0482 113.737 24.0482C115.278 24.0482 116.573 24.3983 117.694 25.0985C118.814 25.7987 119.688 26.8126 120.322 28.1459C120.955 29.4791 121.269 31.0868 121.269 32.9774C121.269 34.868 120.955 36.3804 120.322 37.722C119.691 39.0637 118.809 40.1084 117.677 40.8562C116.545 41.6041 115.231 41.9766 113.737 41.9766L113.74 41.9738ZM114.547 37.7389C115.738 37.7389 116.707 37.3019 117.455 36.4252C118.203 35.5514 118.576 34.4114 118.576 33.011C118.576 31.6105 118.203 30.437 117.455 29.5631C116.707 28.6892 115.741 28.2495 114.547 28.2495C113.354 28.2495 112.415 28.6864 111.659 29.5631C110.899 30.437 110.521 31.5769 110.521 32.9774C110.521 34.3778 110.899 35.5206 111.659 36.4084C112.418 37.2963 113.379 37.7389 114.547 37.7389ZM119.52 41.5536L118.366 37.4924H118.68V28.9161H118.366V17.7126H122.955V41.5536H119.523H119.52Z" fill="white"/>
    <path d="M133.633 41.9569C131.859 41.9569 130.299 41.576 128.957 40.8198C127.615 40.0607 126.57 39.0104 125.822 37.6688C125.074 36.3272 124.701 34.7699 124.701 32.9941C124.701 31.2184 125.074 29.6639 125.822 28.3195C126.57 26.9778 127.612 25.9275 128.957 25.1685C130.299 24.4094 131.857 24.0313 133.633 24.0313C135.409 24.0313 136.964 24.4122 138.309 25.1685C139.651 25.9275 140.696 26.9778 141.444 28.3195C142.192 29.6611 142.565 31.2212 142.565 32.9941C142.565 34.7671 142.192 36.3272 141.444 37.6688C140.696 39.0104 139.651 40.0607 138.309 40.8198C136.967 41.5788 135.406 41.9569 133.633 41.9569ZM133.633 37.5091C134.894 37.5091 135.922 37.0946 136.715 36.2655C137.508 35.4365 137.906 34.3469 137.906 32.9913C137.906 31.6357 137.508 30.5406 136.715 29.7003C135.922 28.86 134.894 28.4399 133.633 28.4399C132.372 28.4399 131.35 28.8544 130.568 29.6835C129.786 30.5126 129.394 31.6049 129.394 32.9577C129.394 34.3105 129.783 35.4085 130.568 36.2487C131.35 37.089 132.372 37.5091 133.633 37.5091Z" fill="white"/>
    <path d="M159.104 30.1933H163.586C164.94 30.1933 166.016 29.8431 166.808 29.1429C167.601 28.4427 167.999 27.4512 167.999 26.1684C167.999 24.8156 167.607 23.7933 166.825 23.1042C166.044 22.4152 164.973 22.0707 163.62 22.0707H159.067L160.048 21.0568V41.5368H155.458V17.6929H164.037C165.789 17.6929 167.307 18.0487 168.59 18.7601C169.874 19.4715 170.879 20.4574 171.602 21.7178C172.325 22.9782 172.689 24.4599 172.689 26.1656C172.689 27.8713 172.328 29.3222 171.602 30.5938C170.879 31.8654 169.868 32.8513 168.574 33.5515C167.279 34.2517 165.766 34.6018 164.037 34.6018H159.101V30.1905L159.104 30.1933Z" fill="white"/>
    <path d="M180.918 42.0271C179.658 42.0271 178.548 41.7862 177.59 41.31C176.632 40.8311 175.898 40.1561 175.382 39.2794C174.869 38.4055 174.612 37.3832 174.612 36.2152C174.612 35.0473 174.886 34.0334 175.435 33.1679C175.984 32.3052 176.735 31.633 177.694 31.1541C178.652 30.6751 179.736 30.437 180.949 30.437C182.608 30.437 183.955 30.818 184.995 31.5742C186.034 32.3332 186.74 33.4116 187.113 34.812L184.978 34.5319V30.4006C184.978 29.748 184.746 29.1626 184.278 28.6501C183.81 28.1375 183.05 27.8798 182.003 27.8798C181.35 27.8798 180.624 27.9555 179.831 28.1067C179.038 28.258 178.209 28.5437 177.343 28.9638L175.976 25.6027C176.979 25.1126 178.047 24.7289 179.181 24.4488C180.313 24.1687 181.451 24.0286 182.597 24.0286C184.16 24.0286 185.457 24.3087 186.485 24.8689C187.514 25.4291 188.284 26.1993 188.797 27.1796C189.31 28.1599 189.567 29.2803 189.567 30.5407V41.5341H185.925L184.944 38.2795L187.116 37.6493C186.718 39.0273 185.99 40.1001 184.928 40.8703C183.866 41.6405 182.529 42.0243 180.918 42.0243V42.0271ZM182.179 38.526C183.02 38.526 183.698 38.3159 184.21 37.8958C184.723 37.4756 184.981 36.9155 184.981 36.2152C184.981 35.515 184.723 34.9268 184.21 34.5179C183.698 34.109 183.02 33.9045 182.179 33.9045C181.339 33.9045 180.661 34.109 180.148 34.5179C179.635 34.9268 179.377 35.4926 179.377 36.2152C179.377 36.9379 179.635 37.4756 180.148 37.8958C180.661 38.3159 181.339 38.526 182.179 38.526Z" fill="white"/>
    <path d="M198.314 39.96L191.484 24.4151H196.177L202.514 38.8732L198.312 39.96H198.314ZM194.392 48.1889L204.865 24.4151H209.558L199.085 48.1889H194.392Z" fill="white"/>
    <path d="M211.472 41.5368V24.4179H214.904L215.851 27.7089L214.38 27.6389C214.988 26.9386 215.652 26.3196 216.375 25.7847C217.097 25.2469 217.885 24.8212 218.739 24.5075C219.591 24.1938 220.485 24.0341 221.418 24.0341C222.586 24.0341 223.519 24.233 224.22 24.6279C224.92 25.0256 225.438 25.5606 225.777 26.2384C226.116 26.9162 226.349 27.6809 226.478 28.5323C226.607 29.3838 226.671 30.2661 226.671 31.1764V41.5396H222.082V31.1428C222.082 30.0924 221.872 29.3922 221.451 29.0421C221.031 28.692 220.53 28.5155 219.944 28.5155C219.104 28.5155 218.285 28.7676 217.493 29.269C216.7 29.7703 216.033 30.4061 215.498 31.1764L214.904 28.7956H216.058V41.5396H211.469L211.472 41.5368ZM232.661 41.5368V31.14C232.661 30.0896 232.457 29.3894 232.048 29.0393C231.639 28.6892 231.143 28.5127 230.56 28.5127C229.719 28.5127 228.901 28.7648 228.108 29.2662C227.316 29.7675 226.649 30.4033 226.114 31.1736L224.959 27.6389C225.567 26.9386 226.237 26.3196 226.974 25.7847C227.708 25.2469 228.503 24.8212 229.355 24.5075C230.207 24.1938 231.101 24.0341 232.034 24.0341C233.177 24.0341 234.101 24.233 234.802 24.6279C235.502 25.0256 236.029 25.5606 236.376 26.2384C236.727 26.9162 236.965 27.6809 237.094 28.5323C237.223 29.3838 237.287 30.2661 237.287 31.1764V41.5396H232.664L232.661 41.5368Z" fill="white"/>
    <path d="M247.709 41.8869C246.006 41.8869 244.51 41.52 243.227 40.7834C241.943 40.0495 240.952 39.016 240.251 37.6856C239.551 36.3552 239.2 34.7923 239.2 32.9941C239.2 31.196 239.551 29.6639 240.251 28.3195C240.952 26.9778 241.943 25.9275 243.227 25.1685C244.51 24.4094 246.006 24.0313 247.709 24.0313C249.413 24.0313 250.937 24.4178 252.209 25.1853C253.481 25.9555 254.467 27.0115 255.168 28.3531C255.868 29.6947 256.218 31.2296 256.218 32.9577C256.218 33.2154 256.213 33.4647 256.202 33.7112C256.19 33.9576 256.16 34.1621 256.115 34.3245H242.946V30.8935H252.646L251.946 32.5404C251.946 31.0923 251.601 29.9132 250.912 29.0057C250.223 28.0954 249.155 27.6389 247.707 27.6389C246.446 27.6389 245.432 28.031 244.658 28.8124C243.888 29.5939 243.504 30.6386 243.504 31.9466V33.8008C243.504 35.1788 243.893 36.2571 244.678 37.0386C245.46 37.82 246.527 38.2122 247.883 38.2122C249.074 38.2122 250.007 37.9657 250.685 37.4783C251.363 36.9882 251.946 36.3804 252.436 35.6578L255.624 37.4783C254.854 38.9012 253.809 39.9935 252.489 40.7526C251.17 41.5116 249.575 41.8897 247.709 41.8897V41.8869Z" fill="white"/>
    <path d="M268.431 24.0313C269.6 24.0313 270.538 24.2302 271.25 24.6251C271.961 25.0228 272.499 25.5578 272.861 26.2356C273.222 26.9134 273.46 27.6781 273.578 28.5295C273.696 29.381 273.752 30.2633 273.752 31.1736V41.5368H269.162V31.1399C269.162 30.0896 268.958 29.3894 268.549 29.0393C268.14 28.6892 267.622 28.5127 266.991 28.5127C266.408 28.5127 265.812 28.6248 265.204 28.846C264.596 29.0673 264.03 29.3838 263.506 29.7927C262.979 30.2017 262.531 30.6638 262.158 31.1764L261.564 28.7956H262.718V41.5396H258.129V24.4206H261.561L262.508 27.7117L261.037 27.6417C261.645 26.9414 262.337 26.3224 263.122 25.7875C263.904 25.2497 264.739 24.824 265.627 24.5103C266.515 24.1966 267.448 24.0369 268.428 24.0369L268.431 24.0313Z" fill="white"/>
    <path d="M275.671 28.6529V24.418H286.668V28.6529H275.671ZM284.006 41.8506C282.255 41.8506 280.871 41.3913 279.857 40.467C278.843 39.5455 278.333 38.0695 278.333 36.0388V24.6253L278.263 24.4152L279.21 20.3875H282.922V35.3022C282.922 36.05 283.101 36.5934 283.466 36.9295C283.827 37.2684 284.289 37.4365 284.85 37.4365C285.222 37.4365 285.561 37.4084 285.864 37.3496C286.167 37.2908 286.436 37.2264 286.671 37.1564V41.4277C286.298 41.5677 285.9 41.6742 285.48 41.7414C285.06 41.8086 284.57 41.8478 284.009 41.8478L284.006 41.8506Z" fill="white"/>
    <path d="M295.423 41.9906C294.115 41.9906 292.871 41.7217 291.694 41.184C290.515 40.6462 289.47 39.7135 288.559 38.3831L291.361 35.9323C292.109 36.7726 292.826 37.3748 293.515 37.7361C294.205 38.0974 294.981 38.2795 295.844 38.2795C296.426 38.2795 296.894 38.1394 297.245 37.8593C297.595 37.5792 297.771 37.2291 297.771 36.809C297.771 36.5289 297.679 36.2796 297.491 36.0556C297.303 35.8343 296.959 35.6186 296.457 35.4086C295.956 35.1985 295.224 34.9772 294.269 34.7419C292.496 34.2742 291.165 33.6384 290.277 32.8346C289.388 32.0279 288.946 30.8907 288.946 29.4203C288.946 28.4176 289.203 27.5017 289.716 26.6726C290.229 25.8436 290.971 25.1854 291.941 24.6952C292.91 24.2051 294.059 23.9614 295.39 23.9614C296.953 23.9614 298.29 24.2639 299.399 24.8717C300.509 25.4795 301.4 26.2133 302.078 27.0788L299.102 29.5659C298.659 29.0982 298.088 28.6921 297.387 28.3391C296.687 27.9862 295.869 27.8126 294.936 27.8126C294.423 27.8126 293.966 27.9302 293.569 28.1627C293.171 28.3952 292.975 28.7341 292.975 29.1766C292.975 29.5967 293.19 29.9468 293.622 30.2269C294.053 30.507 294.888 30.7983 296.127 31.1008C298.228 31.591 299.735 32.2548 300.643 33.095C301.551 33.9353 302.01 35.0556 302.01 36.4561C302.01 37.5764 301.719 38.5511 301.136 39.3802C300.553 40.2093 299.763 40.8507 298.771 41.3072C297.78 41.7609 296.665 41.9906 295.426 41.9906H295.423Z" fill="white"/>
    </svg>
    