<svg width="235" height="48" viewBox="0 0 235 48" fill="none" xmlns="http://www.w3.org/2000/svg">
<path d="M24.0075 8.24512C15.3038 8.24512 8.24756 15.2991 8.24756 24C8.24756 32.701 15.3038 39.755 24.0075 39.755C32.7112 39.755 39.7674 32.701 39.7674 24C39.7674 15.2991 32.7112 8.24512 24.0075 8.24512Z" fill="#C6FE1E"/>
<mask id="mask0_693_1986" style="mask-type:luminance" maskUnits="userSpaceOnUse" x="12" y="15" width="25" height="21">
<path d="M36.6155 15.335H12.9756V35.0286H36.6155V15.335Z" fill="white"/>
</mask>
<g mask="url(#mask0_693_1986)">
<path d="M22.1268 19.8784H22.1163C21.4649 19.6914 20.7756 20.0654 20.555 20.683C20.3112 21.3468 20.6979 22.1072 21.3808 22.3173C23.0535 22.792 23.7721 20.3952 22.1268 19.8784Z" fill="#0D0D0D"/>
<path d="M36.3823 23.2672C34.2285 18.5512 27.3571 20.5028 26.7225 19.2676C24.8629 16.3498 21.3915 14.7112 17.6385 15.5557C17.0607 15.3246 15.0707 15.2616 13.7847 16.0704L14.5601 16.4128C14.6189 16.438 14.6021 16.4317 14.6883 16.4632C15.0392 16.5955 14.9782 16.5577 14.7261 16.6964C14.1482 17.0346 13.4275 17.4274 12.9778 18.0177C12.9967 18.045 13.9675 18.2782 13.9675 18.2782C13.9843 18.2824 14.165 18.3013 14.1251 18.3811C10.95 23.3933 16.3042 30.9577 18.9035 35.0288H26.4283C25.2663 32.9491 23.9383 30.1112 24.3922 28.1849C24.4741 27.8361 24.5792 27.3929 25.0079 27.3341C26.0438 27.1681 27.4307 27.1828 28.4183 27.0715C28.4183 27.0715 28.4232 27.0715 28.433 27.0715C28.6431 27.061 33.7872 26.4077 35.0186 29.6133C35.1236 29.9074 35.3653 29.7162 35.4619 29.523C36.3802 27.6975 36.9728 24.8238 36.3865 23.2693L36.3823 23.2672ZM28.0779 21.719C27.7165 22.3639 27.4706 23.2021 27.4076 23.9331C27.3739 24.3974 27.4223 24.8553 27.4685 25.3196C27.4937 25.5758 27.4958 25.8993 27.2899 26.0674C27.1113 26.2186 26.815 26.2333 26.5166 26.2543C25.052 26.248 21.4797 26.2543 20.1034 25.3175L20.095 25.3112C18.0924 24.0907 17.0207 21.3346 18.2101 19.194C18.5946 18.4672 19.3028 17.9946 20.1097 17.816C21.1477 17.5786 22.2908 17.7551 23.2175 18.2403C23.5958 18.4315 24.0476 18.6836 24.3922 18.9735C25.0751 19.5701 25.6593 20.1898 26.5544 20.3809C26.9663 20.4985 27.395 20.4817 27.8068 20.5658C28.578 20.7506 28.3847 21.1897 28.0758 21.7148L28.0779 21.719Z" fill="#0D0D0D"/>
</g>
<path d="M48.0151 31.1524V13.2695H54.1615C55.9644 13.2695 57.5362 13.6287 58.8769 14.3451C60.2175 15.0635 61.2577 16.0865 62.0036 17.4162C62.7475 18.7459 63.1194 20.3487 63.1194 22.2225C63.1194 24.0963 62.7475 25.7243 62.0036 27.054C61.2598 28.3838 60.2133 29.4005 58.8643 30.1C57.5152 30.7995 55.9392 31.1503 54.1363 31.1503H48.0172L48.0151 31.1524ZM51.4571 29.0245L50.1711 27.8691H53.9009C55.0041 27.8691 55.9792 27.6674 56.8302 27.2641C57.6791 26.8608 58.3494 26.2495 58.839 25.426C59.3287 24.6026 59.5745 23.5354 59.5745 22.2225C59.5745 20.9096 59.3329 19.9118 58.8517 19.0715C58.3705 18.2313 57.7043 17.6011 56.8554 17.181C56.0065 16.7608 55.0294 16.5508 53.9262 16.5508H49.9862L51.4571 15.5004V29.0245Z" fill="#0D0D0D"/>
<path d="M71.2601 31.4676C69.9299 31.4676 68.7595 31.1819 67.7529 30.6148C66.7464 30.0455 65.9626 29.2577 65.4016 28.2515C64.8405 27.2453 64.561 26.0774 64.561 24.7455C64.561 23.4137 64.8405 22.2479 65.4016 21.2395C65.9626 20.2333 66.7443 19.4456 67.7529 18.8763C68.7595 18.307 69.9278 18.0234 71.2601 18.0234C72.5923 18.0234 73.7585 18.3091 74.7672 18.8763C75.7737 19.4456 76.5575 20.2333 77.1185 21.2395C77.6796 22.2458 77.9591 23.4158 77.9591 24.7455C77.9591 26.0753 77.6796 27.2453 77.1185 28.2515C76.5575 29.2577 75.7737 30.0455 74.7672 30.6148C73.7606 31.184 72.5902 31.4676 71.2601 31.4676ZM71.2601 28.1318C72.2056 28.1318 72.9768 27.8209 73.5715 27.1991C74.1662 26.5773 74.4646 25.7602 74.4646 24.7434C74.4646 23.7267 74.1662 22.9054 73.5715 22.2752C72.9768 21.645 72.2056 21.3299 71.2601 21.3299C70.3145 21.3299 69.5475 21.6408 68.9612 22.2626C68.3749 22.8844 68.0807 23.7036 68.0807 24.7182C68.0807 25.7328 68.3728 26.5563 68.9612 27.1865C69.5475 27.8167 70.3145 28.1318 71.2601 28.1318Z" fill="#0D0D0D"/>
<path d="M85.3052 31.4801C84.1326 31.4801 83.0988 31.1902 82.2057 30.6146C81.3127 30.039 80.6213 29.2408 80.1296 28.224C79.64 27.2094 79.3942 26.0436 79.3942 24.7328C79.3942 23.4219 79.6442 22.2351 80.1422 21.2268C80.6424 20.2205 81.3379 19.437 82.231 18.8761C83.124 18.3153 84.1474 18.0359 85.3031 18.0359C86.4588 18.0359 87.4296 18.2984 88.2702 18.8236C89.1107 19.3488 89.7663 20.1092 90.2412 21.1091C90.7161 22.109 90.9514 23.3148 90.9514 24.7328C90.9514 26.1507 90.7161 27.2851 90.2412 28.2913C89.7684 29.2975 89.1065 30.081 88.2575 30.6419C87.4086 31.2028 86.4231 31.4822 85.3031 31.4822L85.3052 31.4801ZM85.9104 28.3039C86.8034 28.3039 87.5305 27.9762 88.0915 27.3187C88.6526 26.6633 88.9321 25.8083 88.9321 24.758C88.9321 23.7076 88.6526 22.8275 88.0915 22.1721C87.5305 21.5167 86.8055 21.1868 85.9104 21.1868C85.0152 21.1868 84.3113 21.5146 83.7439 22.1721C83.1744 22.8275 82.8908 23.6824 82.8908 24.7328C82.8908 25.7831 83.1744 26.6402 83.7439 27.3061C84.3134 27.972 85.0341 28.3039 85.9104 28.3039ZM89.6402 31.165L88.7745 28.119H89.0098V21.6868H88.7745V13.2842H92.2164V31.165H89.6423H89.6402Z" fill="#0D0D0D"/>
<path d="M100.225 31.4676C98.8945 31.4676 97.7241 31.1819 96.7175 30.6148C95.711 30.0455 94.9272 29.2577 94.3662 28.2515C93.8051 27.2453 93.5256 26.0774 93.5256 24.7455C93.5256 23.4137 93.8051 22.2479 94.3662 21.2395C94.9272 20.2333 95.7089 19.4456 96.7175 18.8763C97.7241 18.307 98.8924 18.0234 100.225 18.0234C101.557 18.0234 102.723 18.3091 103.732 18.8763C104.738 19.4456 105.522 20.2333 106.083 21.2395C106.644 22.2458 106.924 23.4158 106.924 24.7455C106.924 26.0753 106.644 27.2453 106.083 28.2515C105.522 29.2577 104.738 30.0455 103.732 30.6148C102.725 31.184 101.555 31.4676 100.225 31.4676ZM100.225 28.1318C101.17 28.1318 101.941 27.8209 102.536 27.1991C103.131 26.5773 103.429 25.7602 103.429 24.7434C103.429 23.7267 103.131 22.9054 102.536 22.2752C101.941 21.645 101.17 21.3299 100.225 21.3299C99.2791 21.3299 98.5121 21.6408 97.9258 22.2626C97.3395 22.8844 97.0453 23.7036 97.0453 24.7182C97.0453 25.7328 97.3374 26.5563 97.9258 27.1865C98.5121 27.8167 99.2791 28.1318 100.225 28.1318Z" fill="#0D0D0D"/>
<path d="M119.328 22.6448H122.69C123.705 22.6448 124.512 22.3822 125.106 21.857C125.701 21.3319 125.999 20.5882 125.999 19.6261C125.999 18.6115 125.705 17.8448 125.119 17.328C124.533 16.8112 123.73 16.5529 122.715 16.5529H119.3L120.036 15.7924V31.1524H116.594V13.2695H123.028C124.341 13.2695 125.48 13.5363 126.443 14.0699C127.405 14.6034 128.16 15.3429 128.702 16.2882C129.244 17.2335 129.517 18.3447 129.517 19.624C129.517 20.9033 129.246 21.9915 128.702 22.9452C128.16 23.8989 127.401 24.6383 126.43 25.1634C125.459 25.6886 124.325 25.9512 123.028 25.9512H119.326V22.6427L119.328 22.6448Z" fill="#0D0D0D"/>
<path d="M135.689 31.5203C134.743 31.5203 133.911 31.3396 133.192 30.9825C132.474 30.6233 131.923 30.1171 131.536 29.4596C131.152 28.8042 130.958 28.0374 130.958 27.1614C130.958 26.2855 131.164 25.525 131.576 24.8759C131.988 24.2289 132.551 23.7248 133.27 23.3656C133.989 23.0063 134.802 22.8278 135.712 22.8278C136.956 22.8278 137.966 23.1135 138.746 23.6807C139.526 24.2499 140.055 25.0587 140.335 26.109L138.733 25.8989V22.8005C138.733 22.311 138.559 21.872 138.208 21.4876C137.857 21.1031 137.288 20.9099 136.502 20.9099C136.012 20.9099 135.468 20.9666 134.873 21.08C134.279 21.1935 133.657 21.4077 133.007 21.7228L131.982 19.2021C132.734 18.8344 133.535 18.5466 134.386 18.3366C135.235 18.1265 136.088 18.0215 136.947 18.0215C138.12 18.0215 139.093 18.2315 139.864 18.6517C140.635 19.0718 141.213 19.6495 141.597 20.3847C141.982 21.12 142.175 21.9602 142.175 22.9055V31.1506H139.444L138.708 28.7096L140.337 28.237C140.038 29.2705 139.492 30.075 138.696 30.6527C137.899 31.2304 136.897 31.5182 135.689 31.5182V31.5203ZM136.634 28.8945C137.265 28.8945 137.773 28.7369 138.158 28.4218C138.542 28.1067 138.735 27.6866 138.735 27.1614C138.735 26.6363 138.542 26.1951 138.158 25.8884C137.773 25.5817 137.265 25.4284 136.634 25.4284C136.004 25.4284 135.495 25.5817 135.111 25.8884C134.726 26.1951 134.533 26.6195 134.533 27.1614C134.533 27.7034 134.726 28.1067 135.111 28.4218C135.495 28.7369 136.004 28.8945 136.634 28.8945Z" fill="#0D0D0D"/>
<path d="M148.736 29.9702L143.613 18.3115H147.132L151.886 29.1551L148.734 29.9702H148.736ZM145.794 36.1419L153.649 18.3115H157.168L149.314 36.1419H145.794Z" fill="#0D0D0D"/>
<path d="M158.604 31.1524V18.3132H161.178L161.888 20.7815L160.785 20.7289C161.241 20.2038 161.739 19.7395 162.281 19.3383C162.823 18.935 163.413 18.6157 164.054 18.3804C164.693 18.1451 165.363 18.0254 166.063 18.0254C166.939 18.0254 167.639 18.1745 168.165 18.4707C168.69 18.769 169.079 19.1702 169.333 19.6786C169.587 20.187 169.762 20.7604 169.858 21.399C169.955 22.0376 170.003 22.6994 170.003 23.3821V31.1545H166.561V23.3569C166.561 22.5691 166.404 22.0439 166.088 21.7814C165.773 21.5188 165.397 21.3864 164.958 21.3864C164.328 21.3864 163.714 21.5755 163.119 21.9515C162.525 22.3275 162.024 22.8044 161.623 23.3821L161.178 21.5965H162.043V31.1545H158.601L158.604 31.1524ZM174.496 31.1524V23.3548C174.496 22.567 174.342 22.0418 174.036 21.7793C173.729 21.5167 173.357 21.3843 172.92 21.3843C172.289 21.3843 171.676 21.5734 171.081 21.9494C170.487 22.3254 169.986 22.8023 169.585 23.38L168.719 20.7289C169.175 20.2038 169.678 19.7395 170.23 19.3383C170.781 18.935 171.377 18.6157 172.016 18.3804C172.655 18.1451 173.325 18.0254 174.025 18.0254C174.882 18.0254 175.576 18.1745 176.101 18.4707C176.627 18.769 177.022 19.1702 177.282 19.6786C177.545 20.187 177.723 20.7604 177.82 21.399C177.917 22.0376 177.965 22.6994 177.965 23.3821V31.1545H174.498L174.496 31.1524Z" fill="#0D0D0D"/>
<path d="M185.782 31.4151C184.504 31.4151 183.382 31.1399 182.42 30.5875C181.457 30.0371 180.714 29.2619 180.188 28.2641C179.663 27.2663 179.4 26.0942 179.4 24.7455C179.4 23.3969 179.663 22.2479 180.188 21.2395C180.714 20.2333 181.457 19.4456 182.42 18.8763C183.382 18.307 184.504 18.0234 185.782 18.0234C187.06 18.0234 188.203 18.3133 189.157 18.8889C190.111 19.4666 190.85 20.2585 191.376 21.2648C191.901 22.271 192.164 23.4221 192.164 24.7182C192.164 24.9115 192.159 25.0984 192.151 25.2833C192.143 25.4682 192.12 25.6215 192.086 25.7434H182.21V23.17H189.485L188.959 24.4052C188.959 23.3192 188.701 22.4348 188.184 21.7542C187.667 21.0715 186.866 20.7291 185.78 20.7291C184.834 20.7291 184.074 21.0232 183.494 21.6093C182.916 22.1953 182.628 22.9789 182.628 23.9599V25.3505C182.628 26.384 182.92 27.1928 183.508 27.7789C184.095 28.365 184.895 28.6591 185.912 28.6591C186.805 28.6591 187.505 28.4742 188.014 28.1087C188.522 27.7411 188.959 27.2852 189.327 26.7433L191.718 28.1087C191.14 29.1758 190.357 29.9951 189.367 30.5644C188.377 31.1336 187.181 31.4172 185.782 31.4172V31.4151Z" fill="#0D0D0D"/>
<path d="M201.323 18.0234C202.2 18.0234 202.904 18.1726 203.437 18.4688C203.971 18.7671 204.374 19.1683 204.646 19.6767C204.917 20.185 205.095 20.7585 205.183 21.3971C205.272 22.0357 205.314 22.6974 205.314 23.3801V31.1525H201.872V23.3549C201.872 22.5672 201.718 22.042 201.412 21.7794C201.105 21.5168 200.716 21.3845 200.243 21.3845C199.806 21.3845 199.359 21.4685 198.903 21.6345C198.447 21.8004 198.022 22.0378 197.629 22.3445C197.234 22.6512 196.898 22.9978 196.619 23.3822L196.173 21.5967H197.039V31.1546H193.597V18.3154H196.171L196.881 20.7837L195.778 20.7312C196.234 20.206 196.753 19.7418 197.341 19.3405C197.928 18.9372 198.554 18.6179 199.22 18.3826C199.886 18.1474 200.586 18.0276 201.321 18.0276L201.323 18.0234Z" fill="#0D0D0D"/>
<path d="M206.753 21.4891V18.3129H215.001V21.4891H206.753ZM213.005 31.3874C211.691 31.3874 210.653 31.0429 209.893 30.3496C209.132 29.6585 208.75 28.5515 208.75 27.0285V18.4683L208.697 18.3108L209.407 15.29H212.192V26.476C212.192 27.0369 212.326 27.4444 212.599 27.6965C212.87 27.9507 213.217 28.0767 213.637 28.0767C213.917 28.0767 214.171 28.0557 214.398 28.0116C214.625 27.9675 214.827 27.9192 215.003 27.8667V31.0702C214.724 31.1752 214.425 31.255 214.11 31.3054C213.795 31.3559 213.427 31.3853 213.007 31.3853L213.005 31.3874Z" fill="#0D0D0D"/>
<path d="M221.568 31.4926C220.586 31.4926 219.653 31.291 218.771 30.8876C217.886 30.4843 217.102 29.7848 216.419 28.787L218.521 26.9489C219.082 27.5791 219.62 28.0307 220.137 28.3017C220.653 28.5727 221.236 28.7093 221.883 28.7093C222.32 28.7093 222.671 28.6042 222.933 28.3942C223.196 28.1841 223.328 27.9215 223.328 27.6064C223.328 27.3963 223.259 27.2094 223.118 27.0413C222.978 26.8754 222.719 26.7136 222.343 26.5561C221.967 26.3985 221.418 26.2326 220.702 26.0561C219.372 25.7053 218.374 25.2285 217.707 24.6256C217.041 24.0206 216.709 23.1677 216.709 22.0649C216.709 21.3128 216.903 20.6259 217.287 20.0041C217.672 19.3823 218.229 18.8887 218.956 18.5211C219.683 18.1535 220.544 17.9707 221.542 17.9707C222.715 17.9707 223.717 18.1976 224.549 18.6534C225.381 19.1093 226.05 19.6596 226.558 20.3087L224.327 22.1741C223.995 21.8233 223.566 21.5187 223.041 21.254C222.515 20.9893 221.902 20.8591 221.202 20.8591C220.817 20.8591 220.475 20.9473 220.176 21.1217C219.878 21.296 219.731 21.5502 219.731 21.8821C219.731 22.1972 219.893 22.4598 220.216 22.6699C220.54 22.8799 221.166 23.0984 222.095 23.3253C223.671 23.6929 224.801 24.1907 225.482 24.8209C226.163 25.4511 226.508 26.2914 226.508 27.3417C226.508 28.182 226.289 28.913 225.852 29.5348C225.415 30.1566 224.822 30.6377 224.079 30.9801C223.335 31.3204 222.498 31.4926 221.57 31.4926H221.568Z" fill="#0D0D0D"/>
</svg>
